<svg xmlns="http://www.w3.org/2000/svg" viewBox="0 0 948.88 283.82"><defs><style>.cls-1{fill:#231f20;}</style></defs><g id="Layer_2" data-name="Layer 2"><g id="Layer_1-2" data-name="Layer 1"><path class="cls-1" d="M142.93,67.14c0-15.26-7.38-27.21-29-27.21H39.67v91.81h20.6V99.44h47.56c10.68,0,13.48,3,13.48,13.73v18.57h20.6V109.87c0-10.91-3.87-17.31-12.46-19.49C138.39,87.36,142.93,78.71,142.93,67.14Zm-31.79,13H60.27V59.26h50.87c7.63,0,11.19,4.07,11.19,10.17S119.28,80.11,111.14,80.11Zm828.58,72h7.63V243.9h-20.6V178.79L884.28,243.9H860.63V152.09h20.6v62.83l31-48.08C920.14,154.63,927,152.09,939.72,152.09ZM537.64,131.74V112.16c8.39,0,10.43-5.09,12.21-22.13l5.59-50.1H629.2v91.81H608.6V59.26H573.07l-3.64,35.09C566.38,124.62,558.24,132.76,537.64,131.74ZM0,283.82H181.59V0H0Zm19.84-264H161.75V264H19.84ZM121.31,152.09h20.6V243.9H76c-26.45,0-36.37-9.92-36.37-36.37V152.09h20.6V208c0,11.7,4.58,16.53,15.26,16.53h45.78ZM669.12,101h45.53v30.77h20.6V39.93h-52.9c-25.94,0-33.83,7.12-33.83,33.82v58h20.6Zm13.23-41.71h32.3V81.89H669.12V73.75C669.12,63.33,670.4,59.26,682.35,59.26ZM436.67,97.91V73.75c0-26.45,7.38-33.82,33.83-33.82h53.91V59.26H469.48c-10.68,0-12.21,1.78-12.21,13.48v3.05h52.14V94.86H457.27v4.07c0,11.7,1.53,13.48,12.21,13.48h55.7v19.33H470.5C444.05,131.74,436.67,124.11,436.67,97.91Zm478.38-58H892.42c-26.2,0-33.82,7.37-33.82,33.82V97.91c0,26.2,10.17,33.83,36.36,33.83h17.55c26.45,0,36.37-7.63,36.37-33.83V73.75C948.88,47.3,941.5,39.93,915.05,39.93Zm13.23,58c0,11.7-2.54,14.5-13.23,14.5H892.42c-10.68,0-13.22-2.8-13.22-14.5V73.75c0-11.7,2.54-14.49,13.22-14.49h22.63c10.69,0,13.23,2.79,13.23,14.49ZM575.53,152.09H632v11.44c0,9.16-.76,16.79-2.79,23.65H611.65V171.41H575.53c-10.68,0-13.22,2.8-13.22,14.5v24.16c0,11.7,2.54,14.5,13.22,14.5H632V243.9H575.53c-26.19,0-33.82-7.63-33.82-33.83V185.91C541.71,159.46,549.34,152.09,575.53,152.09Zm-162-112.16h-75l-4.57,46.54c-2.29,22.13-5.6,25.69-11.7,25.69H321v28.23h19.58l.76-11.7h60.53l.76,11.7h19.59V111.9h-8.65ZM356.61,59.26h36.32v50.35H348.87c2.81-4.92,4-11.78,4.89-20.6Zm136.78,92.83H469c-26.19,0-33.82,7.37-33.82,33.82v24.16c0,26.2,7.63,33.83,33.82,33.83h24.42c26.45,0,33.82-7.63,33.82-33.83V185.91C527.21,159.46,519.84,152.09,493.39,152.09Zm13.22,58c0,11.7-2.54,14.5-13.22,14.5H469c-10.68,0-13.22-2.8-13.22-14.5V185.91c0-11.7,2.54-14.5,13.22-14.5h24.42c10.68,0,13.22,2.8,13.22,14.5Zm173.7-58H737v11.44c0,9.16-.76,16.79-2.8,23.65H716.68V171.41H680.31c-10.68,0-13.22,2.8-13.22,14.5v24.16c0,11.7,2.54,14.5,13.22,14.5H737V243.9H680.31c-26.19,0-33.82-7.63-33.82-33.83V185.91C646.49,159.46,654.12,152.09,680.31,152.09ZM294.82,195.38c4.83-2.95,8.84-9.21,8.84-18.88,0-12.46-7.12-24.41-28.23-24.41H221.52V243.9h56c20.34,0,30.26-10.43,30.26-27.47C307.73,205,301.15,198.22,294.82,195.38Zm-11.76-15.83c0,5.6-2.8,8.65-9.92,8.65h-31V171.67h31C280.26,171.67,283.06,174.21,283.06,179.55Zm-5.34,45h-35.6V206.76h35.6c6.87,0,9.41,3.31,9.41,8.65S284.59,224.57,277.72,224.57Zm543-184.64h20.6v91.81H820.7V94.86H775.18v36.88h-20.6V39.93h20.6v35.6H820.7Zm-568.41,0h56.2V51.37c0,9.16-.76,16.79-2.79,23.66H288.15V59.26H252.29c-10.68,0-13.23,2.79-13.23,14.49V97.91c0,11.7,2.55,14.5,13.23,14.5h56.2v19.33h-56.2c-26.2,0-33.83-7.63-33.83-33.83V73.75C218.46,47.3,226.09,39.93,252.29,39.93ZM833.67,152.09h7.63V243.9H820.7V178.79L778.23,243.9H754.58V152.09h20.6v62.83l31-48.08C814.09,154.63,821,152.09,833.67,152.09Zm-443.28,0h-60v18l10.68,1.53V243.9h20.6V220.24h28.74c23.65,0,31.79-12,31.79-30.51V182.6C422.18,165.06,414.55,152.09,390.39,152.09ZM401.83,189c0,8.65-3.31,12-11.44,12H361.65V171.41h28.74c8.13,0,11.44,4.07,11.44,12Z"/></g></g></svg>